<svg width="119" height="122" viewBox="0 0 119 122" fill="none" xmlns="http://www.w3.org/2000/svg">
<g id="&#240;&#159;&#166;&#134; icon &#34;app settings alt&#34;">
<path id="Vector" d="M107.729 64.279L103.679 61.1003C103.679 60.6462 103.679 60.4444 103.679 59.9903L107.63 56.8117C108.421 56.2063 108.618 55.0963 108.124 54.2385L103.926 46.7713C103.58 46.1154 102.888 45.7622 102.197 45.7622C101.95 45.7622 101.703 45.8126 101.456 45.9136L96.7635 47.8308C96.3684 47.5785 96.2202 47.4776 95.825 47.2758L95.0841 42.1799C94.9359 41.1204 94.0962 40.3636 93.1084 40.3636H84.6619C83.674 40.3636 82.8343 41.1204 82.6862 42.079L81.9946 47.1749C81.8465 47.2758 81.6489 47.3263 81.5007 47.4272C81.3525 47.5281 81.2043 47.629 81.0561 47.7299L76.3637 45.8126C76.1167 45.7117 75.8697 45.6613 75.6228 45.6613C74.9313 45.6613 74.2891 46.0145 73.894 46.6704L69.6955 54.1376C69.2015 54.9953 69.3991 56.1054 70.1894 56.7108L74.1409 59.8894V61.0499L70.1894 64.2285C69.3991 64.834 69.2015 65.944 69.6955 66.8017L73.894 74.2689C74.2397 74.9249 74.9313 75.278 75.6228 75.278C75.8697 75.278 76.1167 75.2276 76.3637 75.1267L81.0561 73.2599C81.4513 73.5121 81.6489 73.613 82.044 73.8149L82.7849 78.9108C82.9331 79.9198 83.7728 80.6262 84.7607 80.6262H93.2071C94.195 80.6262 95.0347 79.8694 95.1829 78.9108L95.9238 73.8149C96.072 73.7139 96.2696 73.6635 96.4178 73.5626C96.5659 73.4617 96.7141 73.3608 96.8623 73.2599L101.555 75.1771C101.802 75.278 102.049 75.3285 102.296 75.3285C102.987 75.3285 103.629 74.9753 104.024 74.3194L108.223 66.8521C108.717 65.9944 108.519 64.8844 107.729 64.279ZM88.9098 68.1135C84.8101 68.1135 81.5007 64.7331 81.5007 60.5453C81.5007 56.3576 84.8101 52.9772 88.9098 52.9772C93.0096 52.9772 96.319 56.3576 96.319 60.5453C96.319 64.7331 93.0096 68.1135 88.9098 68.1135ZM83.9704 90.818H34.5761V30.2727H83.9704V35.3181H93.8493V15.1364C93.8493 9.58637 89.4038 5.04547 83.9704 5.04547H34.5761C29.1428 5.04547 24.6973 9.58637 24.6973 15.1364V105.954C24.6973 111.504 29.1428 116.045 34.5761 116.045H83.9704C89.4038 116.045 93.8493 111.504 93.8493 105.954V85.7726H83.9704V90.818ZM34.5761 15.1364H83.9704V20.1818H34.5761V15.1364ZM83.9704 105.954H34.5761V100.909H83.9704V105.954Z" fill="#D077FF"/>
</g>
</svg>
