<svg width="101" height="105" viewBox="0 0 101 105" fill="none" xmlns="http://www.w3.org/2000/svg">
<path id="Vector" d="M37.6425 82.8976C34.914 91.4062 28.412 97.657 18.8391 100.974C14.5453 102.45 10.0671 103.266 5.54639 103.394C4.48498 103.394 3.46706 102.956 2.71653 102.176C1.966 101.395 1.54433 100.337 1.54428 99.2338C1.66819 94.534 2.45245 89.8784 3.87217 85.4146C7.06331 75.4623 13.0758 68.7029 21.2603 65.8665C21.759 65.6933 22.2856 65.624 22.8101 65.6624C23.3346 65.7009 23.8467 65.8464 24.317 66.0907C24.7874 66.335 25.2069 66.6732 25.5515 67.0861C25.896 67.499 26.159 67.9784 26.3253 68.497C26.4916 69.0155 26.558 69.5631 26.5206 70.1083C26.4833 70.6535 26.343 71.1858 26.1077 71.6746C25.8725 72.1635 25.5468 72.5993 25.1495 72.9573C24.7521 73.3153 24.2908 73.5883 23.7919 73.7609C13.9576 77.1686 10.9115 88.2657 9.96962 94.6359C16.094 93.6567 26.7705 90.4902 30.0486 80.2662C30.2145 79.7474 30.4771 79.2677 30.8214 78.8545C31.1657 78.4413 31.5849 78.1027 32.0552 77.858C32.5254 77.6133 33.0374 77.4673 33.5619 77.4285C34.0865 77.3896 34.6132 77.4586 35.1121 77.6314C35.611 77.8043 36.0722 78.0777 36.4694 78.4359C36.8666 78.7942 37.192 79.2303 37.427 79.7194C37.662 80.2085 37.802 80.7409 37.8389 81.2862C37.8759 81.8315 37.8092 82.3791 37.6425 82.8976ZM87.6142 43.3356L83.1265 48.0011V79.8584C83.1293 80.9515 82.9237 82.0343 82.5213 83.0442C82.119 84.0541 81.5279 84.9711 80.7825 85.742L64.603 102.562C63.5786 103.628 62.2953 104.384 60.89 104.75C59.4847 105.116 58.0101 105.079 56.6234 104.643C55.2367 104.207 53.99 103.387 53.0162 102.272C52.0424 101.156 51.378 99.7874 51.0939 98.3104L47.1384 77.7491L26.2125 55.9945L6.43455 51.8821C5.01395 51.5867 3.6971 50.8961 2.6244 49.8838C1.55171 48.8715 0.763399 47.5755 0.343531 46.1341C-0.0763379 44.6926 -0.11202 43.1597 0.240288 41.6988C0.592595 40.2379 1.31968 38.9038 2.34402 37.8388L18.5235 21.0183C19.2652 20.2433 20.1473 19.6288 21.1189 19.2105C22.0904 18.7922 23.1321 18.5783 24.1837 18.5812H54.827L59.3146 13.9157C73.6161 -0.951409 88.2908 -0.520213 93.9374 0.355644C95.6323 0.611362 97.2022 1.42968 98.4133 2.68861C99.6244 3.94753 100.412 5.57964 100.658 7.34162C101.5 13.2113 101.916 28.4677 87.6142 43.3356ZM8.00424 43.7226L26.8703 47.6451L46.8228 26.9024H24.1837L8.00424 43.7226ZM33.8455 52.1617L50.8252 69.8139L81.954 37.4517C85.8608 33.3902 94.7327 22.4454 92.7414 8.5702C79.4043 6.51478 68.8812 15.7385 64.9748 19.7999L33.8455 52.1617ZM75.1223 56.3226L55.1697 77.0655L58.9428 96.6786L75.1222 79.8584L75.1223 56.3226Z" fill="#D077FF"/>
</svg>
