<svg width="106" height="110" viewBox="0 0 106 110" fill="none" xmlns="http://www.w3.org/2000/svg">
<path id="Vector" d="M77.725 70.938H72.8131L71.0721 69.1969C78.5333 60.1689 82.3883 47.8522 80.2743 34.7617C77.352 16.8347 62.9269 2.51896 45.5174 0.326461C19.2166 -3.02678 -2.91843 19.93 0.314774 47.2073C2.42879 65.2633 16.2321 80.2239 33.5173 83.2547C46.1392 85.4472 58.015 81.4491 66.7197 73.7108L68.3985 75.5164V80.6108L94.8237 108.017C97.3729 110.661 101.539 110.661 104.088 108.017C106.637 105.373 106.637 101.053 104.088 98.4087L77.725 70.938ZM40.4189 70.938C24.9368 70.938 12.4393 57.9764 12.4393 41.9195C12.4393 25.8627 24.9368 12.9011 40.4189 12.9011C55.9009 12.9011 68.3985 25.8627 68.3985 41.9195C68.3985 57.9764 55.9009 70.938 40.4189 70.938Z" fill="#D077FF"/>
</svg>
